@startuml
'https://plantuml.com/class-diagram





scale 750 width
package javax.swing.*   {
  class JFrame
  class JMenuBar
}
package java.awt.* <<Folder>> {
  class AWEvent
  class Component
}

package classes.* <<Cloud>> {
  class classes
}


MenuDemo -- Gui



CustomPaintComponent --|> Component
CustomPaintComponent --|> AWEvent
MenuDemo --|> ActionListener
MenuDemo --|> ItemListener
CustomPaintComponent -- Gui
JFrame -- Gui
JMenuBar -- Gui
classes -- Gui
class Gui {


    +main(String[] args): void
    +makeMenueBar(JFrame frame): JMenuBar

}

class CustomPaintComponent {

             - DirectedWeightedGraphAlgorithms DWGA;
             - ScreenSize:int[]
             - double min_x = Double.MAX_VALUE;
             - double min_y = Double.MAX_VALUE;
             - double max_x = 0;
             - double max_y = 0;
             - final int nodeSize = 7;
             - final int margin = 50;
             - final int indexOffset = 8;
             - final int arrowTipSize = 12;

     + paint(Graphics g): void
     +SetGraph(DirectedWeightedGraphAlgorithms DWG):void
     + GetGraph(): DirectedWeightedGraphAlgorithms
     +  SetScreenSize(int[] ScreenSize): void
     + GetScreenSize(): int[]
     + SetGraphics2D(Graphics2D g2d): void
     + GetGraphics2D(): Graphics2D
     +  drawNodes(Graphics2D g2d): void
      + drawEdges(Graphics2D g2d): void
      +  algoX(double x): double
      + algoY(double y): double
      + updatePrivateValues(DirectedWeightedGraph DWG): void
      + drawArrow(Graphics2D g2d, int x1, int y1, int x2, int y2): void
     +highLightNode(NodeData node): void
     +highLightPath(LinkedList<NodeData> nodes): void

}


class MenuDemo {

        - JFrame frame;
        - CustomPaintComponent CPC;

        +MenuDemo(JMenuItem[] JMI_Arr, JFrame frame)
        +DrawGraph(DirectedWeightedGraphAlgorithms DWGA): void

}
interface ActionListener {

    +  actionPerformed(ActionEvent e): void
}

interface ItemListener {

    + itemStateChanged(ItemEvent e): void
}



@enduml